<svg xmlns="http://www.w3.org/2000/svg" viewBox="0 0 188.65 100"><defs><style>.cls-1{fill:#fff;}</style></defs><title>OPEL_touchscreen_logo_opel</title><g id="Calque_2" data-name="Calque 2"><g id="logo"><path d="M150.15,0H72.39a.6.6,0,0,0-.51.28h0L.14,99A.55.55,0,0,0,0,99.4a.6.6,0,0,0,.6.6H188.65V0Z"/><path class="cls-1" d="M148.16,53l-7.22-.46c.06-.82.1-1.65.1-2.49a30.76,30.76,0,0,0-60.78-6.66H74.59a1.16,1.16,0,0,0-.92.45L72,46.12a.56.56,0,0,0-.13.35.58.58,0,0,0,.58.58l7.2.45c-.07.82-.1,1.66-.1,2.5a30.75,30.75,0,0,0,60.77,6.66H146a1.13,1.13,0,0,0,.92-.45l1.69-2.33a.62.62,0,0,0,.12-.35A.58.58,0,0,0,148.16,53ZM110.29,23.59A26.61,26.61,0,0,1,136.7,50c0,.75,0,1.48-.1,2.21l-22.08-1.4,9.58-6.56a.5.5,0,0,0-.28-.91H84.75A26.66,26.66,0,0,1,110.29,23.59Zm0,52.82A26.6,26.6,0,0,1,83.88,50c0-.75,0-1.49.1-2.23l22.09,1.38-9.55,6.6a.5.5,0,0,0-.22.41.5.5,0,0,0,.5.5h39A26.65,26.65,0,0,1,110.29,76.41Z"/></g></g></svg>