<svg xmlns="http://www.w3.org/2000/svg" viewBox="0 0 50 50"><defs><style>.cls-1{fill:#fff;}</style></defs><title>OPEL_touchscreen_picto_videos</title><g id="Calque_2" data-name="Calque 2"><g id="content"><circle cx="25" cy="25" r="25"/><path class="cls-1" d="M25.2,9.74a14.5,14.5,0,0,1,7.46,2A15.12,15.12,0,0,1,38.1,17.2a14.77,14.77,0,0,1,0,14.91,15.09,15.09,0,0,1-5.44,5.44,14.77,14.77,0,0,1-14.91,0,15.12,15.12,0,0,1-5.45-5.44,14.83,14.83,0,0,1,0-14.91,15.14,15.14,0,0,1,5.45-5.45A14.46,14.46,0,0,1,25.2,9.74Zm7,16.36a1.38,1.38,0,0,0,.72-1.27,1.37,1.37,0,0,0-.72-1.26L21.59,17.14a1.34,1.34,0,0,0-1.44,0,1.37,1.37,0,0,0-.72,1.26V30.91a1.37,1.37,0,0,0,.72,1.26,1.34,1.34,0,0,0,1.44,0Z"/></g></g></svg>