<svg xmlns="http://www.w3.org/2000/svg" viewBox="0 0 50 50"><defs><style>.cls-1{fill:#fff;}</style></defs><title>OPEL_touchscreen_picto_vehicules</title><g id="Calque_2" data-name="Calque 2"><g id="content"><circle cx="25" cy="25" r="25"/><path class="cls-1" d="M39.62,19.74a.61.61,0,0,1,.53.28.66.66,0,0,1,.09.61L39.79,22a.57.57,0,0,1-.62.45H37.55a3.82,3.82,0,0,1,1.34,1.31,3.35,3.35,0,0,1,.51,1.82v2.68a3.4,3.4,0,0,1-.9,2.34V34a1.3,1.3,0,0,1-.39,1,1.28,1.28,0,0,1-1,.39H34.48A1.33,1.33,0,0,1,33.14,34V31.8H18.84V34a1.33,1.33,0,0,1-1.34,1.34H14.82a1.28,1.28,0,0,1-1-.39,1.3,1.3,0,0,1-.39-1V30.57a3.4,3.4,0,0,1-.9-2.34V25.55a3.43,3.43,0,0,1,.5-1.82,3.94,3.94,0,0,1,1.35-1.31H12.81a.57.57,0,0,1-.62-.45l-.45-1.34a.66.66,0,0,1,.09-.61.6.6,0,0,1,.53-.28h3.07l.45-1.18a7.07,7.07,0,0,1,2.62-3.35,7,7,0,0,1,4.08-1.28H29.4a7,7,0,0,1,4.08,1.28,7.07,7.07,0,0,1,2.62,3.35l.45,1.18Zm-23,8.94h.23a7.8,7.8,0,0,0,1.62-.12q.84-.16.84-.78a2.69,2.69,0,0,0-1-1.7,2.69,2.69,0,0,0-1.71-1,1.72,1.72,0,0,0-1.25.53,1.8,1.8,0,0,0,1.25,3.05Zm2.63-8.83L18.39,22h15.2l-.84-2.12a3.54,3.54,0,0,0-1.31-1.71,3.57,3.57,0,0,0-2-.64H22.58a3.57,3.57,0,0,0-2,.64A3.54,3.54,0,0,0,19.23,19.85Zm16.15,8.83a1.78,1.78,0,0,0,1.25-3.05,1.72,1.72,0,0,0-1.25-.53,2.69,2.69,0,0,0-1.71,1,2.69,2.69,0,0,0-1,1.7q0,.62.84.78a7.8,7.8,0,0,0,1.62.12Z"/></g></g></svg>