<svg xmlns="http://www.w3.org/2000/svg" viewBox="0 0 50 50"><defs><style>.cls-1{fill:#fff;}</style></defs><title>OPEL_touchscreen_picto_brochure</title><g id="Calque_2" data-name="Calque 2"><g id="content"><circle cx="25" cy="25" r="25"/><path class="cls-1" d="M24.26,24.85a1.76,1.76,0,0,0-1,.33,1.81,1.81,0,0,0-.67.87l-.42,1.08h7.73l-.43-1.08a1.8,1.8,0,0,0-1.7-1.2Z"/><path class="cls-1" d="M21.22,28.72a.91.91,0,0,0,0,1.82h.11a4,4,0,0,0,.82-.06c.29-.05.43-.19.43-.39a1.37,1.37,0,0,0-.5-.87A1.38,1.38,0,0,0,21.22,28.72Z"/><path class="cls-1" d="M29.83,30.48a4.06,4.06,0,0,0,.83.06h.11a.91.91,0,0,0,0-1.82,1.39,1.39,0,0,0-.87.5,1.35,1.35,0,0,0-.49.87C29.41,30.29,29.55,30.43,29.83,30.48Z"/><path class="cls-1" d="M28.12,19.19a1.19,1.19,0,0,1-.37-.9v-7.2H17.15a1.22,1.22,0,0,0-.9.37,1.21,1.21,0,0,0-.37.9V37a1.26,1.26,0,0,0,1.27,1.27H35A1.26,1.26,0,0,0,36.23,37V19.57H29A1.23,1.23,0,0,1,28.12,19.19Zm3,6.2.23.6h1.56a.31.31,0,0,1,.27.14.36.36,0,0,1,0,.32l-.23.68a.29.29,0,0,1-.31.23h-.83a2,2,0,0,1,.68.66,1.76,1.76,0,0,1,.26.93v1.36a1.72,1.72,0,0,1-.46,1.2v1.76a.65.65,0,0,1-.68.68H30.32a.69.69,0,0,1-.49-.19.7.7,0,0,1-.2-.49V32.13H22.35v1.14a.66.66,0,0,1-.2.49.65.65,0,0,1-.48.19H20.31a.67.67,0,0,1-.49-.19.7.7,0,0,1-.2-.49V31.51a1.76,1.76,0,0,1-.45-1.2V29a1.75,1.75,0,0,1,.25-.93,2,2,0,0,1,.69-.66h-.83a.29.29,0,0,1-.31-.23l-.23-.68a.36.36,0,0,1,0-.32.33.33,0,0,1,.27-.14h1.57l.23-.6A3.67,3.67,0,0,1,24.26,23h3.47a3.7,3.7,0,0,1,3.41,2.36Z"/><path class="cls-1" d="M35.86,16.65l-5.19-5.19a1.23,1.23,0,0,0-.91-.37h-.31v6.78h6.78v-.32A1.22,1.22,0,0,0,35.86,16.65Z"/></g></g></svg>