<svg xmlns="http://www.w3.org/2000/svg" viewBox="0 0 120.78 100"><defs><style>.cls-1{fill:#fff;}</style></defs><title>OPEL_touchscreen_picto_home</title><g id="Calque_2" data-name="Calque 2"><g id="menu"><rect width="120.78" height="100"/><path class="cls-1" d="M93.45,48.44a1.36,1.36,0,0,1,.37.85,1.29,1.29,0,0,1-.26,1l-2.64,3.27a1,1,0,0,1-.85.42,1.55,1.55,0,0,1-.95-.31L64.32,33.24a1.42,1.42,0,0,0-.85-.31,1.39,1.39,0,0,0-.84.31L37.82,53.62a1.55,1.55,0,0,1-1,.31,1,1,0,0,1-.84-.42l-2.64-3.27a1.29,1.29,0,0,1-.26-1,1.31,1.31,0,0,1,.37-.85L60.31,26.38a4.76,4.76,0,0,1,3.16-1.16,5.22,5.22,0,0,1,3.28,1.16l9.39,7.81v-7.7a1.22,1.22,0,0,1,.37-.9,1.26,1.26,0,0,1,.9-.37h5.91a1.26,1.26,0,0,1,1.26,1.27V41.16Zm-8.87,6.44a1.42,1.42,0,0,0-.42-1.05L64.32,37.57a1.42,1.42,0,0,0-.85-.31,1.39,1.39,0,0,0-.84.31L42.78,53.83a1.42,1.42,0,0,0-.42,1.05V70a2.53,2.53,0,0,0,2.54,2.53H57.14a1.26,1.26,0,0,0,1.27-1.27V59.42a1.25,1.25,0,0,1,1.26-1.26h7.6a1.24,1.24,0,0,1,.9.36,1.22,1.22,0,0,1,.37.9V71.24a1.19,1.19,0,0,0,.37.9,1.21,1.21,0,0,0,.9.37H82.05a2.48,2.48,0,0,0,1.8-.74A2.44,2.44,0,0,0,84.58,70Z"/></g></g></svg>